<?xml version="1.0" encoding="UTF-8" standalone="no"?>
<!DOCTYPE svg PUBLIC "-//W3C//DTD SVG 1.1//EN"
 "http://www.w3.org/Graphics/SVG/1.1/DTD/svg11.dtd">
<!-- Generated by graphviz version 5.0.0 (20220707.1540)
 -->
<!-- Title: dependencies Pages: 1 -->
<svg width="1268pt" height="174pt"
 viewBox="0.00 0.00 1268.00 173.80" xmlns="http://www.w3.org/2000/svg" xmlns:xlink="http://www.w3.org/1999/xlink">
<g id="graph0" class="graph" transform="scale(1 1) rotate(0) translate(4 169.8)">
<title>dependencies</title>
<polygon fill="white" stroke="transparent" points="-4,4 -4,-169.8 1264,-169.8 1264,4 -4,4"/>
<text text-anchor="middle" x="630" y="-8.2" font-family="sans-serif" font-size="14.00">dependencies</text>
<g id="clust1" class="cluster">
<title>cluster_TestChambersModule</title>
<polygon fill="none" stroke="black" stroke-dasharray="1,5" points="8,-32.8 8,-157.8 1252,-157.8 1252,-32.8 8,-32.8"/>
</g>
<g id="clust7" class="cluster">
<title>cluster_TestChambersModule_imports</title>
<polygon fill="none" stroke="black" points="808,-40.8 808,-92.8 1244,-92.8 1244,-40.8 808,-40.8"/>
</g>
<g id="clust2" class="cluster">
<title>cluster_TestChambersModule_declarations</title>
<polygon fill="none" stroke="black" points="16,-40.8 16,-92.8 800,-92.8 800,-40.8 16,-40.8"/>
</g>
<!-- AddTestChamberComponent -->
<g id="node1" class="node">
<title>AddTestChamberComponent</title>
<polygon fill="#ffffb3" stroke="black" points="792.36,-84.8 611.64,-84.8 611.64,-48.8 792.36,-48.8 792.36,-84.8"/>
<text text-anchor="middle" x="702" y="-62.6" font-family="Times,serif" font-size="14.00">AddTestChamberComponent</text>
</g>
<!-- TestChambersModule -->
<g id="node5" class="node">
<title>TestChambersModule</title>
<polygon fill="#8dd3c7" stroke="black" points="772.42,-149.8 769.42,-153.8 748.42,-153.8 745.42,-149.8 631.58,-149.8 631.58,-113.8 772.42,-113.8 772.42,-149.8"/>
<text text-anchor="middle" x="702" y="-127.6" font-family="Times,serif" font-size="14.00">TestChambersModule</text>
</g>
<!-- AddTestChamberComponent&#45;&gt;TestChambersModule -->
<g id="edge1" class="edge">
<title>AddTestChamberComponent&#45;&gt;TestChambersModule</title>
<path fill="none" stroke="black" d="M702,-84.91C702,-84.91 702,-103.79 702,-103.79"/>
<polygon fill="black" stroke="black" points="698.5,-103.79 702,-113.79 705.5,-103.79 698.5,-103.79"/>
</g>
<!-- EditTestChamberComponent -->
<g id="node2" class="node">
<title>EditTestChamberComponent</title>
<polygon fill="#ffffb3" stroke="black" points="594.08,-84.8 413.92,-84.8 413.92,-48.8 594.08,-48.8 594.08,-84.8"/>
<text text-anchor="middle" x="504" y="-62.6" font-family="Times,serif" font-size="14.00">EditTestChamberComponent</text>
</g>
<!-- EditTestChamberComponent&#45;&gt;TestChambersModule -->
<g id="edge2" class="edge">
<title>EditTestChamberComponent&#45;&gt;TestChambersModule</title>
<path fill="none" stroke="black" d="M504,-84.83C504,-101.2 504,-122.8 504,-122.8 504,-122.8 621.64,-122.8 621.64,-122.8"/>
<polygon fill="black" stroke="black" points="621.64,-126.3 631.64,-122.8 621.64,-119.3 621.64,-126.3"/>
</g>
<!-- TestChambersComponent -->
<g id="node3" class="node">
<title>TestChambersComponent</title>
<polygon fill="#ffffb3" stroke="black" points="396.2,-84.8 233.8,-84.8 233.8,-48.8 396.2,-48.8 396.2,-84.8"/>
<text text-anchor="middle" x="315" y="-62.6" font-family="Times,serif" font-size="14.00">TestChambersComponent</text>
</g>
<!-- TestChambersComponent&#45;&gt;TestChambersModule -->
<g id="edge3" class="edge">
<title>TestChambersComponent&#45;&gt;TestChambersModule</title>
<path fill="none" stroke="black" d="M315,-84.91C315,-104.14 315,-131.8 315,-131.8 315,-131.8 621.47,-131.8 621.47,-131.8"/>
<polygon fill="black" stroke="black" points="621.47,-135.3 631.47,-131.8 621.47,-128.3 621.47,-135.3"/>
</g>
<!-- ViewTestChambersComponent -->
<g id="node4" class="node">
<title>ViewTestChambersComponent</title>
<polygon fill="#ffffb3" stroke="black" points="216.03,-84.8 23.97,-84.8 23.97,-48.8 216.03,-48.8 216.03,-84.8"/>
<text text-anchor="middle" x="120" y="-62.6" font-family="Times,serif" font-size="14.00">ViewTestChambersComponent</text>
</g>
<!-- ViewTestChambersComponent&#45;&gt;TestChambersModule -->
<g id="edge4" class="edge">
<title>ViewTestChambersComponent&#45;&gt;TestChambersModule</title>
<path fill="none" stroke="black" d="M120,-85.09C120,-107.01 120,-140.8 120,-140.8 120,-140.8 621.51,-140.8 621.51,-140.8"/>
<polygon fill="black" stroke="black" points="621.51,-144.3 631.51,-140.8 621.51,-137.3 621.51,-144.3"/>
</g>
<!-- NgbPagination -->
<g id="node6" class="node">
<title>NgbPagination</title>
<polygon fill="#8dd3c7" stroke="black" points="1235.99,-84.8 1232.99,-88.8 1211.99,-88.8 1208.99,-84.8 1136.01,-84.8 1136.01,-48.8 1235.99,-48.8 1235.99,-84.8"/>
<text text-anchor="middle" x="1186" y="-62.6" font-family="Times,serif" font-size="14.00">NgbPagination</text>
</g>
<!-- NgbPagination&#45;&gt;TestChambersModule -->
<g id="edge5" class="edge">
<title>NgbPagination&#45;&gt;TestChambersModule</title>
<path fill="none" stroke="black" d="M1186,-85.09C1186,-107.01 1186,-140.8 1186,-140.8 1186,-140.8 782.38,-140.8 782.38,-140.8"/>
<polygon fill="black" stroke="black" points="782.38,-137.3 772.38,-140.8 782.38,-144.3 782.38,-137.3"/>
</g>
<!-- SharedModule -->
<g id="node7" class="node">
<title>SharedModule</title>
<polygon fill="#8dd3c7" stroke="black" points="1118.43,-84.8 1115.43,-88.8 1094.43,-88.8 1091.43,-84.8 1019.57,-84.8 1019.57,-48.8 1118.43,-48.8 1118.43,-84.8"/>
<text text-anchor="middle" x="1069" y="-62.6" font-family="Times,serif" font-size="14.00">SharedModule</text>
</g>
<!-- SharedModule&#45;&gt;TestChambersModule -->
<g id="edge6" class="edge">
<title>SharedModule&#45;&gt;TestChambersModule</title>
<path fill="none" stroke="black" d="M1069,-84.91C1069,-104.14 1069,-131.8 1069,-131.8 1069,-131.8 782.33,-131.8 782.33,-131.8"/>
<polygon fill="black" stroke="black" points="782.33,-128.3 772.33,-131.8 782.33,-135.3 782.33,-128.3"/>
</g>
<!-- TestChambersRoutingModule -->
<g id="node8" class="node">
<title>TestChambersRoutingModule</title>
<polygon fill="#8dd3c7" stroke="black" points="1001.54,-84.8 998.54,-88.8 977.54,-88.8 974.54,-84.8 816.46,-84.8 816.46,-48.8 1001.54,-48.8 1001.54,-84.8"/>
<text text-anchor="middle" x="909" y="-62.6" font-family="Times,serif" font-size="14.00">TestChambersRoutingModule</text>
</g>
<!-- TestChambersRoutingModule&#45;&gt;TestChambersModule -->
<g id="edge7" class="edge">
<title>TestChambersRoutingModule&#45;&gt;TestChambersModule</title>
<path fill="none" stroke="black" d="M909,-84.83C909,-101.2 909,-122.8 909,-122.8 909,-122.8 782.37,-122.8 782.37,-122.8"/>
<polygon fill="black" stroke="black" points="782.37,-119.3 772.37,-122.8 782.37,-126.3 782.37,-119.3"/>
</g>
</g>
</svg>
