<?xml version="1.0" encoding="UTF-8" standalone="no"?>
<!DOCTYPE svg PUBLIC "-//W3C//DTD SVG 1.1//EN"
 "http://www.w3.org/Graphics/SVG/1.1/DTD/svg11.dtd">
<!-- Generated by graphviz version 5.0.0 (20220707.1540)
 -->
<!-- Title: dependencies Pages: 1 -->
<svg width="1375pt" height="174pt"
 viewBox="0.00 0.00 1375.00 173.80" xmlns="http://www.w3.org/2000/svg" xmlns:xlink="http://www.w3.org/1999/xlink">
<g id="graph0" class="graph" transform="scale(1 1) rotate(0) translate(4 169.8)">
<title>dependencies</title>
<polygon fill="white" stroke="transparent" points="-4,4 -4,-169.8 1371,-169.8 1371,4 -4,4"/>
<text text-anchor="middle" x="683.5" y="-8.2" font-family="sans-serif" font-size="14.00">dependencies</text>
<g id="clust1" class="cluster">
<title>cluster_BatteryTestModule</title>
<polygon fill="none" stroke="black" stroke-dasharray="1,5" points="8,-32.8 8,-157.8 1359,-157.8 1359,-32.8 8,-32.8"/>
</g>
<g id="clust8" class="cluster">
<title>cluster_BatteryTestModule_imports</title>
<polygon fill="none" stroke="black" points="931,-40.8 931,-92.8 1351,-92.8 1351,-40.8 931,-40.8"/>
</g>
<g id="clust2" class="cluster">
<title>cluster_BatteryTestModule_declarations</title>
<polygon fill="none" stroke="black" points="16,-40.8 16,-92.8 923,-92.8 923,-40.8 16,-40.8"/>
</g>
<!-- BatteryTestComponent -->
<g id="node1" class="node">
<title>BatteryTestComponent</title>
<polygon fill="#ffffb3" stroke="black" points="915.14,-84.8 768.86,-84.8 768.86,-48.8 915.14,-48.8 915.14,-84.8"/>
<text text-anchor="middle" x="842" y="-62.6" font-family="Times,serif" font-size="14.00">BatteryTestComponent</text>
</g>
<!-- BatteryTestModule -->
<g id="node6" class="node">
<title>BatteryTestModule</title>
<polygon fill="#8dd3c7" stroke="black" points="816.36,-149.8 813.36,-153.8 792.36,-153.8 789.36,-149.8 691.64,-149.8 691.64,-113.8 816.36,-113.8 816.36,-149.8"/>
<text text-anchor="middle" x="754" y="-127.6" font-family="Times,serif" font-size="14.00">BatteryTestModule</text>
</g>
<!-- BatteryTestComponent&#45;&gt;BatteryTestModule -->
<g id="edge1" class="edge">
<title>BatteryTestComponent&#45;&gt;BatteryTestModule</title>
<path fill="none" stroke="black" d="M792.56,-84.91C792.56,-84.91 792.56,-103.79 792.56,-103.79"/>
<polygon fill="black" stroke="black" points="789.06,-103.79 792.56,-113.79 796.06,-103.79 789.06,-103.79"/>
</g>
<!-- CreateNewTestComponent -->
<g id="node2" class="node">
<title>CreateNewTestComponent</title>
<polygon fill="#ffffb3" stroke="black" points="750.4,-84.8 581.6,-84.8 581.6,-48.8 750.4,-48.8 750.4,-84.8"/>
<text text-anchor="middle" x="666" y="-62.6" font-family="Times,serif" font-size="14.00">CreateNewTestComponent</text>
</g>
<!-- CreateNewTestComponent&#45;&gt;BatteryTestModule -->
<g id="edge2" class="edge">
<title>CreateNewTestComponent&#45;&gt;BatteryTestModule</title>
<path fill="none" stroke="black" d="M720.88,-84.91C720.88,-84.91 720.88,-103.79 720.88,-103.79"/>
<polygon fill="black" stroke="black" points="717.38,-103.79 720.88,-113.79 724.38,-103.79 717.38,-103.79"/>
</g>
<!-- NoResultComponent -->
<g id="node3" class="node">
<title>NoResultComponent</title>
<polygon fill="#ffffb3" stroke="black" points="564.22,-84.8 429.78,-84.8 429.78,-48.8 564.22,-48.8 564.22,-84.8"/>
<text text-anchor="middle" x="497" y="-62.6" font-family="Times,serif" font-size="14.00">NoResultComponent</text>
</g>
<!-- NoResultComponent&#45;&gt;BatteryTestModule -->
<g id="edge3" class="edge">
<title>NoResultComponent&#45;&gt;BatteryTestModule</title>
<path fill="none" stroke="black" d="M497,-84.83C497,-101.2 497,-122.8 497,-122.8 497,-122.8 681.46,-122.8 681.46,-122.8"/>
<polygon fill="black" stroke="black" points="681.46,-126.3 691.46,-122.8 681.46,-119.3 681.46,-126.3"/>
</g>
<!-- ShowAllTestsResultComponent -->
<g id="node4" class="node">
<title>ShowAllTestsResultComponent</title>
<polygon fill="#ffffb3" stroke="black" points="412.45,-84.8 215.55,-84.8 215.55,-48.8 412.45,-48.8 412.45,-84.8"/>
<text text-anchor="middle" x="314" y="-62.6" font-family="Times,serif" font-size="14.00">ShowAllTestsResultComponent</text>
</g>
<!-- ShowAllTestsResultComponent&#45;&gt;BatteryTestModule -->
<g id="edge4" class="edge">
<title>ShowAllTestsResultComponent&#45;&gt;BatteryTestModule</title>
<path fill="none" stroke="black" d="M314,-84.91C314,-104.14 314,-131.8 314,-131.8 314,-131.8 681.43,-131.8 681.43,-131.8"/>
<polygon fill="black" stroke="black" points="681.43,-135.3 691.43,-131.8 681.43,-128.3 681.43,-135.3"/>
</g>
<!-- ShowTestResultComponent -->
<g id="node5" class="node">
<title>ShowTestResultComponent</title>
<polygon fill="#ffffb3" stroke="black" points="197.61,-84.8 24.39,-84.8 24.39,-48.8 197.61,-48.8 197.61,-84.8"/>
<text text-anchor="middle" x="111" y="-62.6" font-family="Times,serif" font-size="14.00">ShowTestResultComponent</text>
</g>
<!-- ShowTestResultComponent&#45;&gt;BatteryTestModule -->
<g id="edge5" class="edge">
<title>ShowTestResultComponent&#45;&gt;BatteryTestModule</title>
<path fill="none" stroke="black" d="M111,-85.09C111,-107.01 111,-140.8 111,-140.8 111,-140.8 681.47,-140.8 681.47,-140.8"/>
<polygon fill="black" stroke="black" points="681.47,-144.3 691.47,-140.8 681.47,-137.3 681.47,-144.3"/>
</g>
<!-- BatteryTestRoutingModule -->
<g id="node7" class="node">
<title>BatteryTestRoutingModule</title>
<polygon fill="#8dd3c7" stroke="black" points="1342.98,-84.8 1339.98,-88.8 1318.98,-88.8 1315.98,-84.8 1173.02,-84.8 1173.02,-48.8 1342.98,-48.8 1342.98,-84.8"/>
<text text-anchor="middle" x="1258" y="-62.6" font-family="Times,serif" font-size="14.00">BatteryTestRoutingModule</text>
</g>
<!-- BatteryTestRoutingModule&#45;&gt;BatteryTestModule -->
<g id="edge6" class="edge">
<title>BatteryTestRoutingModule&#45;&gt;BatteryTestModule</title>
<path fill="none" stroke="black" d="M1258,-85.09C1258,-107.01 1258,-140.8 1258,-140.8 1258,-140.8 826.56,-140.8 826.56,-140.8"/>
<polygon fill="black" stroke="black" points="826.56,-137.3 816.56,-140.8 826.56,-144.3 826.56,-137.3"/>
</g>
<!-- NgbPagination -->
<g id="node8" class="node">
<title>NgbPagination</title>
<polygon fill="#8dd3c7" stroke="black" points="1154.99,-84.8 1151.99,-88.8 1130.99,-88.8 1127.99,-84.8 1055.01,-84.8 1055.01,-48.8 1154.99,-48.8 1154.99,-84.8"/>
<text text-anchor="middle" x="1105" y="-62.6" font-family="Times,serif" font-size="14.00">NgbPagination</text>
</g>
<!-- NgbPagination&#45;&gt;BatteryTestModule -->
<g id="edge7" class="edge">
<title>NgbPagination&#45;&gt;BatteryTestModule</title>
<path fill="none" stroke="black" d="M1105,-84.91C1105,-104.14 1105,-131.8 1105,-131.8 1105,-131.8 826.75,-131.8 826.75,-131.8"/>
<polygon fill="black" stroke="black" points="826.75,-128.3 816.75,-131.8 826.75,-135.3 826.75,-128.3"/>
</g>
<!-- SharedModule -->
<g id="node9" class="node">
<title>SharedModule</title>
<polygon fill="#8dd3c7" stroke="black" points="1037.43,-84.8 1034.43,-88.8 1013.43,-88.8 1010.43,-84.8 938.57,-84.8 938.57,-48.8 1037.43,-48.8 1037.43,-84.8"/>
<text text-anchor="middle" x="988" y="-62.6" font-family="Times,serif" font-size="14.00">SharedModule</text>
</g>
<!-- SharedModule&#45;&gt;BatteryTestModule -->
<g id="edge8" class="edge">
<title>SharedModule&#45;&gt;BatteryTestModule</title>
<path fill="none" stroke="black" d="M988,-84.83C988,-101.2 988,-122.8 988,-122.8 988,-122.8 826.4,-122.8 826.4,-122.8"/>
<polygon fill="black" stroke="black" points="826.4,-119.3 816.4,-122.8 826.4,-126.3 826.4,-119.3"/>
</g>
</g>
</svg>
