<?xml version="1.0" encoding="UTF-8" standalone="no"?>
<!DOCTYPE svg PUBLIC "-//W3C//DTD SVG 1.1//EN"
 "http://www.w3.org/Graphics/SVG/1.1/DTD/svg11.dtd">
<!-- Generated by graphviz version 5.0.0 (20220707.1540)
 -->
<!-- Title: dependencies Pages: 1 -->
<svg width="1000pt" height="174pt"
 viewBox="0.00 0.00 1000.00 173.80" xmlns="http://www.w3.org/2000/svg" xmlns:xlink="http://www.w3.org/1999/xlink">
<g id="graph0" class="graph" transform="scale(1 1) rotate(0) translate(4 169.8)">
<title>dependencies</title>
<polygon fill="white" stroke="transparent" points="-4,4 -4,-169.8 996,-169.8 996,4 -4,4"/>
<text text-anchor="middle" x="496" y="-8.2" font-family="sans-serif" font-size="14.00">dependencies</text>
<g id="clust1" class="cluster">
<title>cluster_BatteryPacksModule</title>
<polygon fill="none" stroke="black" stroke-dasharray="1,5" points="8,-32.8 8,-157.8 984,-157.8 984,-32.8 8,-32.8"/>
</g>
<g id="clust7" class="cluster">
<title>cluster_BatteryPacksModule_imports</title>
<polygon fill="none" stroke="black" points="782,-40.8 782,-92.8 976,-92.8 976,-40.8 782,-40.8"/>
</g>
<g id="clust2" class="cluster">
<title>cluster_BatteryPacksModule_declarations</title>
<polygon fill="none" stroke="black" points="16,-40.8 16,-92.8 774,-92.8 774,-40.8 16,-40.8"/>
</g>
<!-- AddBatteryPackComponent -->
<g id="node1" class="node">
<title>AddBatteryPackComponent</title>
<polygon fill="#ffffb3" stroke="black" points="765.86,-84.8 592.14,-84.8 592.14,-48.8 765.86,-48.8 765.86,-84.8"/>
<text text-anchor="middle" x="679" y="-62.6" font-family="Times,serif" font-size="14.00">AddBatteryPackComponent</text>
</g>
<!-- BatteryPacksModule -->
<g id="node5" class="node">
<title>BatteryPacksModule</title>
<polygon fill="#8dd3c7" stroke="black" points="562.92,-149.8 559.92,-153.8 538.92,-153.8 535.92,-149.8 429.08,-149.8 429.08,-113.8 562.92,-113.8 562.92,-149.8"/>
<text text-anchor="middle" x="496" y="-127.6" font-family="Times,serif" font-size="14.00">BatteryPacksModule</text>
</g>
<!-- AddBatteryPackComponent&#45;&gt;BatteryPacksModule -->
<g id="edge1" class="edge">
<title>AddBatteryPackComponent&#45;&gt;BatteryPacksModule</title>
<path fill="none" stroke="black" d="M679,-84.82C679,-102.17 679,-125.8 679,-125.8 679,-125.8 572.84,-125.8 572.84,-125.8"/>
<polygon fill="black" stroke="black" points="572.84,-122.3 562.84,-125.8 572.84,-129.3 572.84,-122.3"/>
</g>
<!-- BatteryPacksComponent -->
<g id="node2" class="node">
<title>BatteryPacksComponent</title>
<polygon fill="#ffffb3" stroke="black" points="573.7,-84.8 418.3,-84.8 418.3,-48.8 573.7,-48.8 573.7,-84.8"/>
<text text-anchor="middle" x="496" y="-62.6" font-family="Times,serif" font-size="14.00">BatteryPacksComponent</text>
</g>
<!-- BatteryPacksComponent&#45;&gt;BatteryPacksModule -->
<g id="edge2" class="edge">
<title>BatteryPacksComponent&#45;&gt;BatteryPacksModule</title>
<path fill="none" stroke="black" d="M496,-84.91C496,-84.91 496,-103.79 496,-103.79"/>
<polygon fill="black" stroke="black" points="492.5,-103.79 496,-113.79 499.5,-103.79 492.5,-103.79"/>
</g>
<!-- EditBatteryPackComponent -->
<g id="node3" class="node">
<title>EditBatteryPackComponent</title>
<polygon fill="#ffffb3" stroke="black" points="400.58,-84.8 227.42,-84.8 227.42,-48.8 400.58,-48.8 400.58,-84.8"/>
<text text-anchor="middle" x="314" y="-62.6" font-family="Times,serif" font-size="14.00">EditBatteryPackComponent</text>
</g>
<!-- EditBatteryPackComponent&#45;&gt;BatteryPacksModule -->
<g id="edge3" class="edge">
<title>EditBatteryPackComponent&#45;&gt;BatteryPacksModule</title>
<path fill="none" stroke="black" d="M314,-84.82C314,-102.17 314,-125.8 314,-125.8 314,-125.8 419.26,-125.8 419.26,-125.8"/>
<polygon fill="black" stroke="black" points="419.26,-129.3 429.26,-125.8 419.26,-122.3 419.26,-129.3"/>
</g>
<!-- ViewBatteryPacksComponent -->
<g id="node4" class="node">
<title>ViewBatteryPacksComponent</title>
<polygon fill="#ffffb3" stroke="black" points="209.53,-84.8 24.47,-84.8 24.47,-48.8 209.53,-48.8 209.53,-84.8"/>
<text text-anchor="middle" x="117" y="-62.6" font-family="Times,serif" font-size="14.00">ViewBatteryPacksComponent</text>
</g>
<!-- ViewBatteryPacksComponent&#45;&gt;BatteryPacksModule -->
<g id="edge4" class="edge">
<title>ViewBatteryPacksComponent&#45;&gt;BatteryPacksModule</title>
<path fill="none" stroke="black" d="M117,-85.08C117,-106.12 117,-137.8 117,-137.8 117,-137.8 419.11,-137.8 419.11,-137.8"/>
<polygon fill="black" stroke="black" points="419.11,-141.3 429.11,-137.8 419.11,-134.3 419.11,-141.3"/>
</g>
<!-- BatteryPacksRoutingModule -->
<g id="node6" class="node">
<title>BatteryPacksRoutingModule</title>
<polygon fill="#8dd3c7" stroke="black" points="968.04,-84.8 965.04,-88.8 944.04,-88.8 941.04,-84.8 789.96,-84.8 789.96,-48.8 968.04,-48.8 968.04,-84.8"/>
<text text-anchor="middle" x="879" y="-62.6" font-family="Times,serif" font-size="14.00">BatteryPacksRoutingModule</text>
</g>
<!-- BatteryPacksRoutingModule&#45;&gt;BatteryPacksModule -->
<g id="edge5" class="edge">
<title>BatteryPacksRoutingModule&#45;&gt;BatteryPacksModule</title>
<path fill="none" stroke="black" d="M879,-85.08C879,-106.12 879,-137.8 879,-137.8 879,-137.8 572.71,-137.8 572.71,-137.8"/>
<polygon fill="black" stroke="black" points="572.71,-134.3 562.71,-137.8 572.71,-141.3 572.71,-134.3"/>
</g>
</g>
</svg>
