<?xml version="1.0" encoding="UTF-8" standalone="no"?>
<!DOCTYPE svg PUBLIC "-//W3C//DTD SVG 1.1//EN"
 "http://www.w3.org/Graphics/SVG/1.1/DTD/svg11.dtd">
<!-- Generated by graphviz version 5.0.0 (20220707.1540)
 -->
<!-- Title: dependencies Pages: 1 -->
<svg width="1020pt" height="174pt"
 viewBox="0.00 0.00 1020.00 173.80" xmlns="http://www.w3.org/2000/svg" xmlns:xlink="http://www.w3.org/1999/xlink">
<g id="graph0" class="graph" transform="scale(1 1) rotate(0) translate(4 169.8)">
<title>dependencies</title>
<polygon fill="white" stroke="transparent" points="-4,4 -4,-169.8 1016,-169.8 1016,4 -4,4"/>
<text text-anchor="middle" x="506" y="-8.2" font-family="sans-serif" font-size="14.00">dependencies</text>
<g id="clust1" class="cluster">
<title>cluster_CellsModule</title>
<polygon fill="none" stroke="black" stroke-dasharray="1,5" points="8,-32.8 8,-157.8 1004,-157.8 1004,-32.8 8,-32.8"/>
</g>
<g id="clust2" class="cluster">
<title>cluster_CellsModule_declarations</title>
<polygon fill="none" stroke="black" points="408,-40.8 408,-92.8 996,-92.8 996,-40.8 408,-40.8"/>
</g>
<g id="clust7" class="cluster">
<title>cluster_CellsModule_imports</title>
<polygon fill="none" stroke="black" points="16,-40.8 16,-92.8 400,-92.8 400,-40.8 16,-40.8"/>
</g>
<!-- AddCellsComponent -->
<g id="node1" class="node">
<title>AddCellsComponent</title>
<polygon fill="#ffffb3" stroke="black" points="988.22,-84.8 853.78,-84.8 853.78,-48.8 988.22,-48.8 988.22,-84.8"/>
<text text-anchor="middle" x="921" y="-62.6" font-family="Times,serif" font-size="14.00">AddCellsComponent</text>
</g>
<!-- CellsModule -->
<g id="node5" class="node">
<title>CellsModule</title>
<polygon fill="#8dd3c7" stroke="black" points="530.33,-149.8 527.33,-153.8 506.33,-153.8 503.33,-149.8 441.67,-149.8 441.67,-113.8 530.33,-113.8 530.33,-149.8"/>
<text text-anchor="middle" x="486" y="-127.6" font-family="Times,serif" font-size="14.00">CellsModule</text>
</g>
<!-- AddCellsComponent&#45;&gt;CellsModule -->
<g id="edge1" class="edge">
<title>AddCellsComponent&#45;&gt;CellsModule</title>
<path fill="none" stroke="black" d="M921,-85.09C921,-107.01 921,-140.8 921,-140.8 921,-140.8 540.51,-140.8 540.51,-140.8"/>
<polygon fill="black" stroke="black" points="540.51,-137.3 530.51,-140.8 540.51,-144.3 540.51,-137.3"/>
</g>
<!-- CellsComponent -->
<g id="node2" class="node">
<title>CellsComponent</title>
<polygon fill="#ffffb3" stroke="black" points="836.11,-84.8 725.89,-84.8 725.89,-48.8 836.11,-48.8 836.11,-84.8"/>
<text text-anchor="middle" x="781" y="-62.6" font-family="Times,serif" font-size="14.00">CellsComponent</text>
</g>
<!-- CellsComponent&#45;&gt;CellsModule -->
<g id="edge2" class="edge">
<title>CellsComponent&#45;&gt;CellsModule</title>
<path fill="none" stroke="black" d="M781,-84.91C781,-104.14 781,-131.8 781,-131.8 781,-131.8 540.48,-131.8 540.48,-131.8"/>
<polygon fill="black" stroke="black" points="540.48,-128.3 530.48,-131.8 540.48,-135.3 540.48,-128.3"/>
</g>
<!-- EditCellsComponent -->
<g id="node3" class="node">
<title>EditCellsComponent</title>
<polygon fill="#ffffb3" stroke="black" points="707.94,-84.8 574.06,-84.8 574.06,-48.8 707.94,-48.8 707.94,-84.8"/>
<text text-anchor="middle" x="641" y="-62.6" font-family="Times,serif" font-size="14.00">EditCellsComponent</text>
</g>
<!-- EditCellsComponent&#45;&gt;CellsModule -->
<g id="edge3" class="edge">
<title>EditCellsComponent&#45;&gt;CellsModule</title>
<path fill="none" stroke="black" d="M641,-84.83C641,-101.2 641,-122.8 641,-122.8 641,-122.8 540.42,-122.8 540.42,-122.8"/>
<polygon fill="black" stroke="black" points="540.42,-119.3 530.42,-122.8 540.42,-126.3 540.42,-119.3"/>
</g>
<!-- ViewCellsComponent -->
<g id="node4" class="node">
<title>ViewCellsComponent</title>
<polygon fill="#ffffb3" stroke="black" points="556.44,-84.8 415.56,-84.8 415.56,-48.8 556.44,-48.8 556.44,-84.8"/>
<text text-anchor="middle" x="486" y="-62.6" font-family="Times,serif" font-size="14.00">ViewCellsComponent</text>
</g>
<!-- ViewCellsComponent&#45;&gt;CellsModule -->
<g id="edge4" class="edge">
<title>ViewCellsComponent&#45;&gt;CellsModule</title>
<path fill="none" stroke="black" d="M486,-84.91C486,-84.91 486,-103.79 486,-103.79"/>
<polygon fill="black" stroke="black" points="482.5,-103.79 486,-113.79 489.5,-103.79 482.5,-103.79"/>
</g>
<!-- CellsRoutingModule -->
<g id="node6" class="node">
<title>CellsRoutingModule</title>
<polygon fill="#8dd3c7" stroke="black" points="391.95,-84.8 388.95,-88.8 367.95,-88.8 364.95,-84.8 258.05,-84.8 258.05,-48.8 391.95,-48.8 391.95,-84.8"/>
<text text-anchor="middle" x="325" y="-62.6" font-family="Times,serif" font-size="14.00">CellsRoutingModule</text>
</g>
<!-- CellsRoutingModule&#45;&gt;CellsModule -->
<g id="edge5" class="edge">
<title>CellsRoutingModule&#45;&gt;CellsModule</title>
<path fill="none" stroke="black" d="M325,-84.83C325,-101.2 325,-122.8 325,-122.8 325,-122.8 431.58,-122.8 431.58,-122.8"/>
<polygon fill="black" stroke="black" points="431.58,-126.3 441.58,-122.8 431.58,-119.3 431.58,-126.3"/>
</g>
<!-- NgbPagination -->
<g id="node7" class="node">
<title>NgbPagination</title>
<polygon fill="#8dd3c7" stroke="black" points="239.99,-84.8 236.99,-88.8 215.99,-88.8 212.99,-84.8 140.01,-84.8 140.01,-48.8 239.99,-48.8 239.99,-84.8"/>
<text text-anchor="middle" x="190" y="-62.6" font-family="Times,serif" font-size="14.00">NgbPagination</text>
</g>
<!-- NgbPagination&#45;&gt;CellsModule -->
<g id="edge6" class="edge">
<title>NgbPagination&#45;&gt;CellsModule</title>
<path fill="none" stroke="black" d="M190,-84.91C190,-104.14 190,-131.8 190,-131.8 190,-131.8 431.69,-131.8 431.69,-131.8"/>
<polygon fill="black" stroke="black" points="431.69,-135.3 441.69,-131.8 431.69,-128.3 431.69,-135.3"/>
</g>
<!-- SharedModule -->
<g id="node8" class="node">
<title>SharedModule</title>
<polygon fill="#8dd3c7" stroke="black" points="122.43,-84.8 119.43,-88.8 98.43,-88.8 95.43,-84.8 23.57,-84.8 23.57,-48.8 122.43,-48.8 122.43,-84.8"/>
<text text-anchor="middle" x="73" y="-62.6" font-family="Times,serif" font-size="14.00">SharedModule</text>
</g>
<!-- SharedModule&#45;&gt;CellsModule -->
<g id="edge7" class="edge">
<title>SharedModule&#45;&gt;CellsModule</title>
<path fill="none" stroke="black" d="M73,-85.09C73,-107.01 73,-140.8 73,-140.8 73,-140.8 431.8,-140.8 431.8,-140.8"/>
<polygon fill="black" stroke="black" points="431.8,-144.3 441.8,-140.8 431.8,-137.3 431.8,-144.3"/>
</g>
</g>
</svg>
