<?xml version="1.0" encoding="UTF-8" standalone="no"?>
<!DOCTYPE svg PUBLIC "-//W3C//DTD SVG 1.1//EN"
 "http://www.w3.org/Graphics/SVG/1.1/DTD/svg11.dtd">
<!-- Generated by graphviz version 5.0.0 (20220707.1540)
 -->
<!-- Title: dependencies Pages: 1 -->
<svg width="1649pt" height="247pt"
 viewBox="0.00 0.00 1649.00 246.80" xmlns="http://www.w3.org/2000/svg" xmlns:xlink="http://www.w3.org/1999/xlink">
<g id="graph0" class="graph" transform="scale(1 1) rotate(0) translate(4 242.8)">
<title>dependencies</title>
<polygon fill="white" stroke="transparent" points="-4,4 -4,-242.8 1645,-242.8 1645,4 -4,4"/>
<text text-anchor="middle" x="820.5" y="-8.2" font-family="sans-serif" font-size="14.00">dependencies</text>
<g id="clust1" class="cluster">
<title>cluster_AppModule</title>
<polygon fill="none" stroke="black" stroke-dasharray="1,5" points="8,-32.8 8,-230.8 1633,-230.8 1633,-32.8 8,-32.8"/>
</g>
<g id="clust14" class="cluster">
<title>cluster_AppModule_bootstrap</title>
<polygon fill="none" stroke="black" points="773,-170.8 773,-222.8 897,-222.8 897,-170.8 773,-170.8"/>
</g>
<g id="clust12" class="cluster">
<title>cluster_AppModule_imports</title>
<polygon fill="none" stroke="black" points="1364,-40.8 1364,-92.8 1625,-92.8 1625,-40.8 1364,-40.8"/>
</g>
<g id="clust2" class="cluster">
<title>cluster_AppModule_declarations</title>
<polygon fill="none" stroke="black" points="16,-40.8 16,-92.8 1356,-92.8 1356,-40.8 16,-40.8"/>
</g>
<!-- AppComponent -->
<g id="node1" class="node">
<title>AppComponent</title>
<polygon fill="#ffffb3" stroke="black" points="1347.94,-84.8 1242.06,-84.8 1242.06,-48.8 1347.94,-48.8 1347.94,-84.8"/>
<text text-anchor="middle" x="1295" y="-62.6" font-family="Times,serif" font-size="14.00">AppComponent</text>
</g>
<!-- AppModule -->
<g id="node10" class="node">
<title>AppModule</title>
<polygon fill="#8dd3c7" stroke="black" points="876.66,-149.8 873.66,-153.8 852.66,-153.8 849.66,-149.8 793.34,-149.8 793.34,-113.8 876.66,-113.8 876.66,-149.8"/>
<text text-anchor="middle" x="835" y="-127.6" font-family="Times,serif" font-size="14.00">AppModule</text>
</g>
<!-- AppComponent&#45;&gt;AppModule -->
<g id="edge1" class="edge">
<title>AppComponent&#45;&gt;AppModule</title>
<path fill="none" stroke="black" d="M1295,-84.91C1295,-104.14 1295,-131.8 1295,-131.8 1295,-131.8 887.04,-131.8 887.04,-131.8"/>
<polygon fill="black" stroke="black" points="887.04,-128.3 877.04,-131.8 887.04,-135.3 887.04,-128.3"/>
</g>
<!-- DashboardComponent -->
<g id="node2" class="node">
<title>DashboardComponent</title>
<polygon fill="#ffffb3" stroke="black" points="1223.98,-84.8 1082.02,-84.8 1082.02,-48.8 1223.98,-48.8 1223.98,-84.8"/>
<text text-anchor="middle" x="1153" y="-62.6" font-family="Times,serif" font-size="14.00">DashboardComponent</text>
</g>
<!-- DashboardComponent&#45;&gt;AppModule -->
<g id="edge2" class="edge">
<title>DashboardComponent&#45;&gt;AppModule</title>
<path fill="none" stroke="black" d="M1153,-84.82C1153,-102.17 1153,-125.8 1153,-125.8 1153,-125.8 886.9,-125.8 886.9,-125.8"/>
<polygon fill="black" stroke="black" points="886.9,-122.3 876.9,-125.8 886.9,-129.3 886.9,-122.3"/>
</g>
<!-- DeviceDataComponent -->
<g id="node3" class="node">
<title>DeviceDataComponent</title>
<polygon fill="#ffffb3" stroke="black" points="1063.9,-84.8 916.1,-84.8 916.1,-48.8 1063.9,-48.8 1063.9,-84.8"/>
<text text-anchor="middle" x="990" y="-62.6" font-family="Times,serif" font-size="14.00">DeviceDataComponent</text>
</g>
<!-- DeviceDataComponent&#45;&gt;AppModule -->
<g id="edge3" class="edge">
<title>DeviceDataComponent&#45;&gt;AppModule</title>
<path fill="none" stroke="black" d="M990,-85.04C990,-100.37 990,-119.8 990,-119.8 990,-119.8 886.95,-119.8 886.95,-119.8"/>
<polygon fill="black" stroke="black" points="886.95,-116.3 876.95,-119.8 886.95,-123.3 886.95,-116.3"/>
</g>
<!-- DevicesComponent -->
<g id="node4" class="node">
<title>DevicesComponent</title>
<polygon fill="#ffffb3" stroke="black" points="898.42,-84.8 771.58,-84.8 771.58,-48.8 898.42,-48.8 898.42,-84.8"/>
<text text-anchor="middle" x="835" y="-62.6" font-family="Times,serif" font-size="14.00">DevicesComponent</text>
</g>
<!-- DevicesComponent&#45;&gt;AppModule -->
<g id="edge4" class="edge">
<title>DevicesComponent&#45;&gt;AppModule</title>
<path fill="none" stroke="black" d="M835,-84.91C835,-84.91 835,-103.79 835,-103.79"/>
<polygon fill="black" stroke="black" points="831.5,-103.79 835,-113.79 838.5,-103.79 831.5,-103.79"/>
</g>
<!-- DevicesDefaultComponent -->
<g id="node5" class="node">
<title>DevicesDefaultComponent</title>
<polygon fill="#ffffb3" stroke="black" points="754.4,-84.8 585.6,-84.8 585.6,-48.8 754.4,-48.8 754.4,-84.8"/>
<text text-anchor="middle" x="670" y="-62.6" font-family="Times,serif" font-size="14.00">DevicesDefaultComponent</text>
</g>
<!-- DevicesDefaultComponent&#45;&gt;AppModule -->
<g id="edge5" class="edge">
<title>DevicesDefaultComponent&#45;&gt;AppModule</title>
<path fill="none" stroke="black" d="M670,-85.04C670,-100.37 670,-119.8 670,-119.8 670,-119.8 782.94,-119.8 782.94,-119.8"/>
<polygon fill="black" stroke="black" points="782.94,-123.3 792.94,-119.8 782.94,-116.3 782.94,-123.3"/>
</g>
<!-- DocsComponent -->
<g id="node6" class="node">
<title>DocsComponent</title>
<polygon fill="#ffffb3" stroke="black" points="568.1,-84.8 457.9,-84.8 457.9,-48.8 568.1,-48.8 568.1,-84.8"/>
<text text-anchor="middle" x="513" y="-62.6" font-family="Times,serif" font-size="14.00">DocsComponent</text>
</g>
<!-- DocsComponent&#45;&gt;AppModule -->
<g id="edge6" class="edge">
<title>DocsComponent&#45;&gt;AppModule</title>
<path fill="none" stroke="black" d="M513,-84.82C513,-102.17 513,-125.8 513,-125.8 513,-125.8 783.23,-125.8 783.23,-125.8"/>
<polygon fill="black" stroke="black" points="783.23,-129.3 793.23,-125.8 783.23,-122.3 783.23,-129.3"/>
</g>
<!-- FootNavComponent -->
<g id="node7" class="node">
<title>FootNavComponent</title>
<polygon fill="#ffffb3" stroke="black" points="440.33,-84.8 309.67,-84.8 309.67,-48.8 440.33,-48.8 440.33,-84.8"/>
<text text-anchor="middle" x="375" y="-62.6" font-family="Times,serif" font-size="14.00">FootNavComponent</text>
</g>
<!-- FootNavComponent&#45;&gt;AppModule -->
<g id="edge7" class="edge">
<title>FootNavComponent&#45;&gt;AppModule</title>
<path fill="none" stroke="black" d="M375,-84.91C375,-104.14 375,-131.8 375,-131.8 375,-131.8 782.96,-131.8 782.96,-131.8"/>
<polygon fill="black" stroke="black" points="782.96,-135.3 792.96,-131.8 782.96,-128.3 782.96,-135.3"/>
</g>
<!-- HeadNavComponent -->
<g id="node8" class="node">
<title>HeadNavComponent</title>
<polygon fill="#ffffb3" stroke="black" points="292.19,-84.8 157.81,-84.8 157.81,-48.8 292.19,-48.8 292.19,-84.8"/>
<text text-anchor="middle" x="225" y="-62.6" font-family="Times,serif" font-size="14.00">HeadNavComponent</text>
</g>
<!-- HeadNavComponent&#45;&gt;AppModule -->
<g id="edge8" class="edge">
<title>HeadNavComponent&#45;&gt;AppModule</title>
<path fill="none" stroke="black" d="M225,-85.08C225,-106.12 225,-137.8 225,-137.8 225,-137.8 783.07,-137.8 783.07,-137.8"/>
<polygon fill="black" stroke="black" points="783.07,-141.3 793.07,-137.8 783.07,-134.3 783.07,-141.3"/>
</g>
<!-- HomeComponent -->
<g id="node9" class="node">
<title>HomeComponent</title>
<polygon fill="#ffffb3" stroke="black" points="139.55,-84.8 24.45,-84.8 24.45,-48.8 139.55,-48.8 139.55,-84.8"/>
<text text-anchor="middle" x="82" y="-62.6" font-family="Times,serif" font-size="14.00">HomeComponent</text>
</g>
<!-- HomeComponent&#45;&gt;AppModule -->
<g id="edge9" class="edge">
<title>HomeComponent&#45;&gt;AppModule</title>
<path fill="none" stroke="black" d="M82,-85.05C82,-107.82 82,-143.8 82,-143.8 82,-143.8 783.17,-143.8 783.17,-143.8"/>
<polygon fill="black" stroke="black" points="783.17,-147.3 793.17,-143.8 783.17,-140.3 783.17,-147.3"/>
</g>
<!-- AppComponent  -->
<g id="node13" class="node">
<title>AppComponent </title>
<polygon fill="#80b1d3" stroke="black" points="889.44,-214.8 780.56,-214.8 780.56,-178.8 889.44,-178.8 889.44,-214.8"/>
<text text-anchor="middle" x="835" y="-192.6" font-family="Times,serif" font-size="14.00">AppComponent </text>
</g>
<!-- AppModule&#45;&gt;AppComponent  -->
<g id="edge12" class="edge">
<title>AppModule&#45;&gt;AppComponent </title>
<path fill="none" stroke="black" stroke-dasharray="1,5" d="M835,-149.91C835,-149.91 835,-168.79 835,-168.79"/>
<polygon fill="black" stroke="black" points="831.5,-168.79 835,-178.79 838.5,-168.79 831.5,-168.79"/>
</g>
<!-- AppRoutingModule -->
<g id="node11" class="node">
<title>AppRoutingModule</title>
<polygon fill="#8dd3c7" stroke="black" points="1617.28,-84.8 1614.28,-88.8 1593.28,-88.8 1590.28,-84.8 1488.72,-84.8 1488.72,-48.8 1617.28,-48.8 1617.28,-84.8"/>
<text text-anchor="middle" x="1553" y="-62.6" font-family="Times,serif" font-size="14.00">AppRoutingModule</text>
</g>
<!-- AppRoutingModule&#45;&gt;AppModule -->
<g id="edge10" class="edge">
<title>AppRoutingModule&#45;&gt;AppModule</title>
<path fill="none" stroke="black" d="M1553,-85.05C1553,-107.82 1553,-143.8 1553,-143.8 1553,-143.8 886.71,-143.8 886.71,-143.8"/>
<polygon fill="black" stroke="black" points="886.71,-140.3 876.71,-143.8 886.71,-147.3 886.71,-140.3"/>
</g>
<!-- SharedModule -->
<g id="node12" class="node">
<title>SharedModule</title>
<polygon fill="#8dd3c7" stroke="black" points="1470.43,-84.8 1467.43,-88.8 1446.43,-88.8 1443.43,-84.8 1371.57,-84.8 1371.57,-48.8 1470.43,-48.8 1470.43,-84.8"/>
<text text-anchor="middle" x="1421" y="-62.6" font-family="Times,serif" font-size="14.00">SharedModule</text>
</g>
<!-- SharedModule&#45;&gt;AppModule -->
<g id="edge11" class="edge">
<title>SharedModule&#45;&gt;AppModule</title>
<path fill="none" stroke="black" d="M1421,-85.08C1421,-106.12 1421,-137.8 1421,-137.8 1421,-137.8 886.67,-137.8 886.67,-137.8"/>
<polygon fill="black" stroke="black" points="886.67,-134.3 876.67,-137.8 886.67,-141.3 886.67,-134.3"/>
</g>
</g>
</svg>
